#!OML:ASF E:\Steps\Project 1\Capture day 1\Session 2\Subject.ASF
:FULLY-SPECIFIED
:DEGREES
911
root 27.2144 16.1691 -11.1602 -324.953 84.6224 14.8701
lowerback -28.4151 -2.24604 -6.4478
upperback -0.659952 -0.474171 -0.973537
thorax 14.3928 -0.522087 2.30025
lowerneck 1.75579 -1.57852 -3.71128
upperneck -5.05155 -1.94188 5.56091
head -1.80946 -1.00739 2.46611
rclavicle 4.96962e-017 4.77083e-015
rhumerus -34.8654 -26.9522 -76.3631
rradius 21.2873
rwrist 8.1145
rhand -5.56071 -53.6398
rfingers 7.12502
rthumb 20.2546 -82.6037
lclavicle 4.96962e-017 4.77083e-015
lhumerus -16.5561 -6.27283 83.3764
lradius 26.461
lwrist 2.32749
lhand -24.2654 -10.7026
lfingers 7.12502
lthumb 2.221 19.2656
rfemur -36.4239 -0.492326 19.1709
rtibia 59.5331
rfoot -19.6711 -7.8077
rtoes -36.0242
lfemur -24.1129 -5.82506 -22.8118
ltibia 8.57111
lfoot -1.91153 -2.87737
ltoes -31.9733
912
root 27.249 16.1731 -11.1606 -324.76 84.5924 14.9735
lowerback -28.3597 -2.32603 -6.50114
upperback -0.675319 -0.568313 -0.961468
thorax 14.357 -0.566695 2.30668
lowerneck 1.58441 -1.52636 -3.561
upperneck -5.03071 -1.87382 5.33397
head -1.77678 -0.969233 2.35853
rclavicle -6.41081e-015 -2.38542e-015
rhumerus -34.9342 -26.0023 -76.7597
rradius 21.5976
rwrist 7.15175
rhand -5.525 -53.4771
rfingers 7.12502
rthumb 20.2889 -82.4374
lclavicle -6.41081e-015 -2.38542e-015
lhumerus -16.1162 -6.39662 83.1702
lradius 26.8711
lwrist 2.31552
lhand -24.0177 -10.8148
lfingers 7.12502
lthumb 2.46023 19.1507
rfemur -36.8556 0.153875 19.1004
rtibia 58.7555
rfoot -20.1869 -8.7693
rtoes -36.3498
lfemur -24.0137 -5.98348 -22.806
ltibia 8.44127
lfoot -1.94354 -2.75854
ltoes -32.2293
913
root 27.2825 16.1816 -11.1628 -323.92 84.6838 15.6502
lowerback -28.3573 -2.39076 -6.57347
upperback -0.702451 -0.627516 -0.967241
thorax 14.3293 -0.595347 2.31691
lowerneck 1.4776 -1.49555 -3.23136
upperneck -5.03405 -1.83214 5.04574
head -1.76302 -0.947281 2.20071
rclavicle -1.3418e-014 3.18055e-015
rhumerus -35.0878 -25.6164 -76.9721
rradius 21.7757
rwrist 6.47847
rhand -6.52226 -53.1803
rfingers 7.12502
rthumb 19.3302 -82.2396
lclavicle -1.3418e-014 3.18055e-015
lhumerus -15.6205 -6.31555 82.8725
lradius 27.1158
lwrist 1.68946
lhand -23.5162 -11.1915
lfingers 7.12502
lthumb 2.94459 18.7679
rfemur -37.2156 0.793872 18.8876
rtibia 57.7498
rfoot -21.1227 -9.07213
rtoes -34.1045
lfemur -24.0914 -6.18565 -22.8115
ltibia 8.47532
lfoot -1.99026 -2.68584
ltoes -32.204
914
root 27.3157 16.1927 -11.1658 -323.394 84.739 16.074
lowerback -28.3267 -2.46683 -6.66325
upperback -0.691253 -0.696418 -0.987738
thorax 14.3337 -0.631543 2.31691
lowerneck 1.95763 -1.70904 -3.28581
upperneck -5.68122 -2.09093 5.3129
head -2.04669 -1.08791 2.3237
rclavicle 6.11263e-015 -2.22639e-014
rhumerus -35.1917 -25.6339 -76.9939
rradius 21.8473
rwrist 6.38564
rhand -6.84959 -53.2575
rfingers 7.12502
rthumb 19.0155 -82.348
lclavicle 6.11263e-015 -2.22639e-014
lhumerus -15.4178 -6.91205 82.9261
lradius 27.8969
lwrist 1.62853
lhand -23.4035 -10.8715
lfingers 7.12502
lthumb 3.05342 19.0864
rfemur -37.4197 1.4256 18.6583
rtibia 56.5239
rfoot -22.0695 -9.3574
rtoes -32.779
lfemur -24.1144 -6.3935 -22.7958
ltibia 8.55101
lfoot -2.08791 -2.52106
ltoes -31.8402
915
root 27.3409 16.2013 -11.1707 -322.338 84.9454 17.0247
lowerback -28.1417 -2.63394 -6.70671
upperback -0.74736 -0.911034 -1.02801
thorax 14.1998 -0.723345 2.21779
lowerneck 2.02434 -1.79137 -3.23359
upperneck -5.69629 -2.19226 5.4458
head -2.05853 -1.1434 2.36195
rclavicle -2.47487e-014 -2.70347e-014
rhumerus -35.295 -25.2081 -77.2163
rradius 22.1139
rwrist 6.09892
rhand -6.46558 -53.3537
rfingers 7.12502
rthumb 19.3847 -82.4075
lclavicle -2.47487e-014 -2.70347e-014
lhumerus -15.0863 -6.55256 82.708
lradius 28.2217
lwrist 0.817125
lhand -23.4214 -10.8991
lfingers 7.12502
lthumb 3.03615 19.059
rfemur -37.6339 1.65889 18.5629
rtibia 55.208
rfoot -22.6891 -9.94262
rtoes -33.3178
lfemur -24.2439 -6.47073 -22.8254
ltibia 8.74884
lfoot -2.23184 -2.64634
ltoes -31.9907
916
root 27.3817 16.2012 -11.1789 -322.595 85.0672 16.5963
lowerback -28.2473 -2.70916 -6.45904
upperback -0.7878 -1.07261 -1.07057
thorax 14.2131 -0.775934 1.97405
lowerneck 1.80855 -1.71409 -3.13664
upperneck -5.56713 -2.09531 5.26322
head -1.98319 -1.08974 2.27523
rclavicle -3.03147e-015 -6.36111e-015
rhumerus -35.5042 -24.7737 -77.4636
rradius 22.5462
rwrist 5.82367
rhand -6.40045 -53.3454
rfingers 7.12502
rthumb 19.4474 -82.3929
lclavicle -3.03147e-015 -6.36111e-015
lhumerus -14.8326 -6.54552 82.4336
lradius 28.6246
lwrist 0.830244
lhand -23.6453 -10.9037
lfingers 7.12502
lthumb 2.81991 19.0574
rfemur -37.8362 1.95482 18.4567
rtibia 53.7521
rfoot -23.2684 -10.3482
rtoes -33.7708
lfemur -24.2557 -6.86489 -22.6823
ltibia 8.66933
lfoot -2.29657 -2.36071
ltoes -30.8612
